<svg width="55" height="55" viewBox="0 0 55 55" fill="none" xmlns="http://www.w3.org/2000/svg">
<path d="M41.25 19.0433C40.425 18.1037 39.5771 17.1641 38.6834 16.2704L38.0188 15.6516L38.3396 15.3766C39.4603 14.4146 40.2589 13.132 40.6278 11.7018C40.9966 10.2716 40.9178 8.76274 40.4021 7.37872C39.6548 5.81803 38.4716 4.50711 36.9954 3.6043C35.5192 2.7015 33.8131 2.24545 32.0834 2.29122V6.87456C32.8987 6.86321 33.7024 7.0696 34.4114 7.47244C35.1204 7.87528 35.7091 8.45998 36.1167 9.16622C36.5063 10.0829 36.1167 11.0912 35.0396 12.1683C34.8792 12.3516 34.6959 12.4662 34.5354 12.6266C27.6604 7.10372 20.1209 3.98706 16.4313 7.67664C16.0448 8.07172 15.7272 8.52874 15.4917 9.02872V9.25789L15.0792 10.4725L4.97295 40.4933C4.59068 41.6246 4.48344 42.8307 4.66013 44.0117C4.83681 45.1927 5.29233 46.3146 5.98895 47.2845C6.68557 48.2544 7.60325 49.0444 8.66598 49.589C9.7287 50.1336 10.9059 50.4172 12.1 50.4162C12.8797 50.4086 13.6533 50.2771 14.3917 50.0266L45.8334 39.5996C46.2198 39.4557 46.5602 39.2103 46.8188 38.8891L47.3 38.4766C50.5771 35.1766 48.4688 28.8287 44.0688 22.6641C46.6814 21.1394 49.6897 20.4292 52.7084 20.6246V16.0412C48.669 15.819 44.6615 16.8689 41.25 19.0433ZM13.0625 45.6725C12.5423 45.8446 11.9845 45.8689 11.4514 45.7424C10.9182 45.6159 10.4307 45.3438 10.0433 44.9563C9.6558 44.5689 9.38365 44.0814 9.25719 43.5482C9.13074 43.0151 9.15494 42.4572 9.32712 41.9371L12.4438 32.5412C14.668 36.7829 18.0858 40.2803 22.275 42.6016L13.0625 45.6725ZM29.1042 40.3329C25.6409 39.4157 22.4815 37.5994 19.9461 35.068C17.4107 32.5367 15.5894 29.3802 14.6667 25.9183L16.9584 19.0433L17.0959 19.2496C17.3479 19.7537 17.6688 20.2808 17.9896 20.8079C18.3104 21.335 18.3563 21.4725 18.5854 21.8162C18.8146 22.16 19.3417 22.9162 19.7542 23.4891C20.1667 24.0621 20.1896 24.1308 20.4417 24.4516C20.6938 24.7725 21.4271 25.7121 21.9542 26.3308L22.6188 27.1329C23.3979 28.0266 24.2229 28.8975 25.0938 29.7912C25.9646 30.685 26.6521 31.2579 27.3854 32.0829L28.1417 32.7246L29.9292 34.1683L30.7771 34.81C31.4188 35.2683 32.0375 35.7266 32.6792 36.1391L33.3896 36.5975C34.2146 37.1016 35.0396 37.5829 35.8417 37.9954H35.9563L29.1042 40.3329ZM44.0229 35.2225H43.8854C42.3042 36.0933 35.7271 33.9162 28.325 26.4912C27.5459 25.7121 26.8125 24.9558 26.1479 24.1996L25.4834 23.3975L24.2688 21.9308L23.6042 21.0141C23.3063 20.5787 22.9854 20.1662 22.7104 19.7537L22.1146 18.7912L21.45 17.7141C21.2667 17.3933 21.1292 17.0954 20.9688 16.7975C20.8084 16.4996 20.625 16.2016 20.4875 15.8808C20.3646 15.6123 20.2575 15.3368 20.1667 15.0558C20.0521 14.7579 19.9146 14.46 19.8229 14.185C19.7313 13.91 19.7084 13.7496 19.6396 13.4746C19.5709 13.1996 19.525 12.9704 19.4792 12.7412C19.4678 12.5428 19.4678 12.3438 19.4792 12.1454C19.4571 11.9627 19.4571 11.7781 19.4792 11.5954L19.7313 10.885C20.5563 10.06 24.8417 10.885 30.5709 15.2391C29.5997 15.6774 28.5615 15.9486 27.5 16.0412V20.6246C29.9343 20.4845 32.2961 19.7445 34.375 18.4704L35.475 19.5246C36.4375 20.4871 37.3313 21.4725 38.1792 22.4579C36.8674 24.83 36.3836 27.5717 36.8042 30.2496L41.3875 29.3558C41.2525 28.5056 41.2525 27.6394 41.3875 26.7891C42.087 27.8497 42.7074 28.9604 43.2438 30.1121C44.5271 33.1371 44.4354 34.8329 44.0229 35.2225Z" fill="#AD6E6F"/>
</svg>
