<svg width="45" height="45" viewBox="0 0 45 45" fill="none" xmlns="http://www.w3.org/2000/svg">
<g clip-path="url(#clip0_968_105)">
<path d="M11.25 28.1255C9.69375 28.1255 8.2875 28.763 7.275 29.7755C5.0625 31.988 3.75 41.2505 3.75 41.2505C3.75 41.2505 13.0125 39.938 15.225 37.7255C16.2375 36.713 16.875 35.3067 16.875 33.7505C16.875 30.638 14.3625 28.1255 11.25 28.1255ZM12.5813 35.0817C12.0562 35.6067 8.5125 36.5067 8.5125 36.5067C8.5125 36.5067 9.39375 32.9817 9.9375 32.438C10.2563 32.0817 10.725 31.8755 11.25 31.8755C12.2812 31.8755 13.125 32.7192 13.125 33.7505C13.125 34.2755 12.9187 34.7442 12.5813 35.0817ZM32.6625 25.5942C44.5875 13.6692 40.6125 4.38795 40.6125 4.38795C40.6125 4.38795 31.3313 0.412953 19.4063 12.338L14.7375 11.4005C13.5188 11.1567 12.2438 11.5505 11.3438 12.4317L3.75 20.0442L13.125 24.0567L20.9438 31.8755L24.9563 41.2505L32.55 33.6567C33.4313 32.7755 33.825 31.5005 33.5812 30.263L32.6625 25.5942ZM13.8937 20.3067L10.3125 18.7692L14.0062 15.0755L16.7062 15.6192C15.6375 17.1755 14.6812 18.8067 13.8937 20.3067ZM26.2312 34.688L24.6938 31.1067C26.1938 30.3192 27.825 29.363 29.3625 28.2942L29.9062 30.9942L26.2312 34.688ZM30 22.9505C27.525 25.4255 23.6625 27.4505 22.425 28.0692L16.9312 22.5755C17.5312 21.3567 19.5563 17.4942 22.05 15.0005C30.825 6.22545 37.4813 7.5192 37.4813 7.5192C37.4813 7.5192 38.775 14.1755 30 22.9505ZM28.125 20.6255C30.1875 20.6255 31.875 18.938 31.875 16.8755C31.875 14.813 30.1875 13.1255 28.125 13.1255C26.0625 13.1255 24.375 14.813 24.375 16.8755C24.375 18.938 26.0625 20.6255 28.125 20.6255Z" fill="#AD6E6F"/>
</g>
<defs>
<clipPath id="clip0_968_105">
<rect width="45" height="45" fill="white"/>
</clipPath>
</defs>
</svg>
