<svg width="45" height="45" viewBox="0 0 45 45" fill="none" xmlns="http://www.w3.org/2000/svg">
<g clip-path="url(#clip0_968_103)">
<path d="M22.9127 37.2188C22.5752 37.5563 21.9752 37.6125 21.5814 37.2188C21.2439 36.8813 21.1877 36.2812 21.5814 35.8875L27.9377 29.5313L25.2939 26.8875L18.9377 33.2438C18.5814 33.6188 17.9814 33.6 17.6064 33.2438C17.2127 32.85 17.2689 32.25 17.6064 31.9125L23.9627 25.5563L21.3189 22.9125L14.9627 29.2688C14.6252 29.6063 14.0252 29.6625 13.6314 29.2688C13.2752 28.9125 13.2752 28.3125 13.6314 27.9375L19.9877 21.5813L17.3252 18.9375L10.9689 25.2938C10.6314 25.6313 10.0314 25.6875 9.63767 25.2938C9.28142 24.9188 9.28142 24.3375 9.63767 23.9625L17.8502 15.75L21.3564 19.2375C23.1377 21.0188 26.2127 21 27.9939 19.2375C29.8314 17.4 29.8314 14.4375 27.9939 12.6L24.5064 9.1125L25.0314 8.5875C26.4939 7.125 28.8752 7.125 30.3377 8.5875L38.2877 16.5375C39.7502 18 39.7502 20.3813 38.2877 21.8438L22.9127 37.2188ZM40.9314 24.5063C43.8564 21.5813 43.8564 16.8375 40.9314 13.8938L32.9814 5.94375C30.0564 3.01875 25.3127 3.01875 22.3689 5.94375L21.8439 6.46875L21.3189 5.94375C18.3939 3.01875 13.6502 3.01875 10.7064 5.94375L4.06892 12.5813C1.40642 15.2438 1.16267 19.3875 3.31892 22.3125L6.03767 19.5938C5.30642 18.1875 5.55017 16.4063 6.73142 15.225L13.3689 8.5875C14.8314 7.125 17.2127 7.125 18.6752 8.5875L25.3502 15.2625C25.6877 15.6 25.7439 16.2 25.3502 16.5938C24.9564 16.9875 24.3564 16.9313 24.0189 16.5938L17.8502 10.4438L6.97517 21.3C5.13767 23.1188 5.13767 26.1 6.97517 27.9375C7.70642 28.6688 8.64392 29.1188 9.63767 29.25C9.76892 30.225 10.2002 31.1625 10.9502 31.9125C11.7002 32.6625 12.6377 33.0938 13.6127 33.225C13.7439 34.2 14.1752 35.1375 14.9252 35.8875C15.6752 36.6375 16.6127 37.0688 17.5877 37.2C17.7189 38.2125 18.1689 39.1313 18.9002 39.8625C19.7814 40.7438 20.9627 41.2313 22.2189 41.2313C23.4752 41.2313 24.6564 40.7438 25.5377 39.8625L40.9314 24.5063Z" fill="#AD6E6F"/>
</g>
<defs>
<clipPath id="clip0_968_103">
<rect width="45" height="45" fill="white"/>
</clipPath>
</defs>
</svg>
