<svg width="45" height="45" viewBox="0 0 45 45" fill="none" xmlns="http://www.w3.org/2000/svg">
<g clip-path="url(#clip0_991_388)">
<path d="M22.5 11.25C29.6062 11.25 35.9437 15.2438 39.0375 21.5625C35.9437 27.8812 29.6062 31.875 22.5 31.875C15.3938 31.875 9.05625 27.8812 5.9625 21.5625C9.05625 15.2438 15.3938 11.25 22.5 11.25ZM22.5 7.5C13.125 7.5 5.11875 13.3313 1.875 21.5625C5.11875 29.7937 13.125 35.625 22.5 35.625C31.875 35.625 39.8812 29.7937 43.125 21.5625C39.8812 13.3313 31.875 7.5 22.5 7.5ZM22.5 16.875C25.0875 16.875 27.1875 18.975 27.1875 21.5625C27.1875 24.15 25.0875 26.25 22.5 26.25C19.9125 26.25 17.8125 24.15 17.8125 21.5625C17.8125 18.975 19.9125 16.875 22.5 16.875ZM22.5 13.125C17.85 13.125 14.0625 16.9125 14.0625 21.5625C14.0625 26.2125 17.85 30 22.5 30C27.15 30 30.9375 26.2125 30.9375 21.5625C30.9375 16.9125 27.15 13.125 22.5 13.125Z" fill="#AD6E6F"/>
</g>
<defs>
<clipPath id="clip0_991_388">
<rect width="45" height="45" fill="white"/>
</clipPath>
</defs>
</svg>
